<?xml version="1.0" standalone="no"?>
<!DOCTYPE svg PUBLIC "-//W3C//DTD SVG 20010904//EN"
 "http://www.w3.org/TR/2001/REC-SVG-20010904/DTD/svg10.dtd">
<svg version="1.0" xmlns="http://www.w3.org/2000/svg"
 width="1551.000000pt" height="391.000000pt" viewBox="0 0 1551.000000 391.000000"
 preserveAspectRatio="xMidYMid meet">

<g transform="translate(0.000000,391.000000) scale(0.100000,-0.100000)"
fill="#FFFFFF" stroke="none">
<path d="M7747 3888 c-43 -32 -59 -270 -37 -543 6 -70 9 -129 8 -130 -2 -2
-39 26 -83 62 -95 78 -144 110 -197 129 -68 24 -1173 -8 -1438 -41 -63 -8
-194 -22 -290 -30 -96 -8 -199 -22 -227 -30 -89 -26 -88 -24 -88 -347 0 -153
-3 -278 -6 -278 -4 0 -16 26 -28 58 -12 31 -38 88 -59 127 -72 136 -107 142
-902 176 -364 16 -754 1 -980 -36 -47 -8 -116 -17 -155 -20 -95 -9 -220 -40
-260 -65 l-33 -21 -27 83 c-32 97 -161 442 -175 469 -30 55 -270 51 -674 -11
-72 -12 -189 -30 -261 -41 -191 -29 -400 -54 -760 -89 -729 -71 -1007 -107
-1036 -136 -22 -23 -38 -119 -33 -194 13 -164 27 -299 44 -415 10 -71 24 -186
30 -255 27 -313 52 -628 70 -890 11 -157 26 -385 35 -507 8 -122 19 -233 25
-247 11 -29 -2 -25 225 -76 339 -76 510 -120 745 -190 129 -38 245 -70 257
-70 28 0 63 33 63 58 0 15 -185 563 -254 750 -8 23 -13 42 -11 42 11 0 237
-492 375 -815 66 -155 111 -248 128 -264 25 -22 31 -23 121 -18 64 3 150 19
256 45 351 88 831 142 1270 142 118 0 145 12 145 63 0 18 -4 37 -8 43 -4 7
-54 49 -112 94 -58 45 -106 85 -107 88 -2 4 198 8 445 10 511 3 587 8 1320 82
107 11 197 20 201 20 4 0 7 -46 7 -102 0 -120 12 -154 64 -181 45 -24 32 -24
840 33 252 18 852 41 1200 46 345 5 427 12 494 45 50 24 56 24 56 -2 0 -12 9
-37 21 -55 41 -68 114 -65 380 11 309 89 669 158 992 191 l68 6 115 -112 114
-113 177 6 c98 3 255 14 348 26 219 26 354 28 834 13 464 -14 434 -20 551 106
l71 76 92 -23 c51 -12 257 -69 459 -127 202 -57 379 -104 392 -104 26 0 96 54
96 74 0 19 193 406 203 406 30 0 711 -575 838 -708 106 -110 187 -170 243
-179 52 -8 133 34 291 154 213 162 842 596 960 663 61 35 142 84 180 110 76
51 155 130 155 155 0 49 -76 118 -198 179 -62 31 -372 159 -912 376 -619 248
-665 268 -661 277 5 11 320 273 407 338 195 146 517 365 814 555 80 51 148 97
152 104 15 22 8 76 -12 96 -54 54 -114 74 -796 260 -435 119 -706 176 -763
160 -48 -13 -110 -54 -190 -127 -35 -32 -132 -110 -215 -174 -124 -94 -184
-150 -336 -312 l-184 -198 -27 53 c-15 29 -43 100 -64 158 -49 137 -59 156
-89 164 -67 17 -370 -43 -605 -119 -94 -31 -116 -35 -126 -23 -17 18 -42 66
-124 240 -134 285 -187 332 -385 349 -61 5 -343 12 -626 16 -432 5 -543 3
-680 -10 -91 -9 -210 -19 -265 -22 -124 -6 -204 -25 -253 -57 -56 -37 -127
-150 -220 -348 -11 -22 -11 -19 -7 25 2 28 7 100 10 160 4 61 13 174 21 253
16 161 8 252 -24 285 -22 21 -169 49 -358 66 -147 14 -338 37 -464 56 -223 35
-550 47 -583 23z m793 -229 c74 -11 170 -24 213 -29 106 -12 124 -25 133 -96
8 -67 -2 -303 -21 -499 -7 -77 -16 -203 -20 -280 -18 -416 -54 -962 -85 -1280
-10 -109 -12 -241 -3 -274 l6 -24 256 9 c263 9 550 9 610 -2 l33 -5 -6 -52
c-11 -89 -45 -176 -69 -182 -12 -2 -96 -16 -187 -30 -383 -59 -825 -138 -980
-174 -47 -11 -116 -23 -155 -27 l-70 -6 -33 188 c-51 281 -50 277 -9 355 19
36 40 82 45 102 10 34 8 40 -24 80 -105 129 -92 91 -104 313 -6 110 -14 276
-19 369 l-8 170 30 80 c106 283 104 318 -26 452 l-51 52 13 403 c7 222 15 407
19 412 9 15 366 -2 512 -25z m-6040 -333 c23 -10 159 -387 249 -691 44 -148
94 -310 111 -360 17 -49 34 -120 37 -157 6 -67 6 -68 -36 -122 -46 -59 -130
-142 -174 -171 -27 -17 -52 -18 -495 -11 -424 6 -623 0 -680 -19 -32 -11 114
-169 308 -330 52 -44 154 -135 225 -204 72 -68 198 -184 281 -257 83 -73 190
-174 237 -224 94 -101 202 -229 196 -234 -2 -2 -80 -11 -174 -20 -326 -32
-451 -48 -590 -72 -77 -13 -146 -24 -155 -24 -29 0 -424 740 -564 1058 -32 73
-75 158 -95 189 l-36 55 -120 -5 c-66 -3 -135 -10 -152 -17 -29 -10 -32 -15
-27 -38 15 -71 38 -144 64 -212 17 -41 55 -158 86 -260 30 -102 72 -235 93
-296 42 -119 57 -189 44 -196 -29 -16 -555 61 -579 84 -7 8 -40 283 -74 628
-66 658 -121 1201 -135 1330 -26 228 -29 308 -15 325 21 25 129 53 256 65 65
6 186 23 267 36 81 13 261 35 400 49 399 39 546 56 632 70 69 12 165 24 320
39 55 5 277 -1 295 -8z m4804 -70 c18 -8 62 -38 97 -68 35 -29 127 -102 205
-160 175 -133 302 -244 347 -303 l35 -45 -18 -83 c-35 -160 -91 -331 -123
-381 -26 -38 -71 -68 -222 -146 -163 -85 -235 -130 -270 -172 -27 -32 -29 -37
-17 -54 6 -11 266 -164 277 -164 20 0 302 -147 350 -182 96 -71 97 -75 35
-211 -60 -133 -214 -408 -271 -484 -34 -45 -45 -53 -91 -63 -29 -6 -179 -15
-333 -20 -154 -5 -370 -16 -480 -24 -110 -9 -306 -23 -435 -31 -129 -9 -275
-22 -325 -30 -165 -25 -316 -38 -392 -32 -41 3 -76 7 -78 9 -2 2 -9 74 -16
161 l-12 158 36 37 c82 84 87 156 28 412 -19 81 -20 103 -10 480 5 217 13 587
17 822 6 366 9 430 22 443 22 22 86 31 410 60 157 14 377 35 490 45 403 39
689 49 744 26z m3701 -66 c61 -6 144 -17 185 -26 71 -15 78 -19 135 -77 41
-42 76 -92 108 -154 57 -110 100 -221 93 -239 -3 -7 -65 -32 -137 -54 -132
-42 -159 -54 -210 -95 l-27 -22 39 -51 c36 -46 88 -91 323 -276 48 -37 92 -80
98 -95 12 -30 5 -178 -16 -351 -8 -63 -22 -178 -32 -255 l-17 -140 -44 -35
c-102 -80 -302 -314 -304 -355 0 -5 44 -19 98 -31 54 -11 96 -24 93 -29 -3 -4
-35 -37 -71 -71 l-66 -64 -329 0 c-373 0 -592 -11 -809 -42 -82 -11 -208 -21
-279 -22 l-129 -1 -38 62 -39 63 25 0 c25 0 65 31 65 50 0 5 14 40 31 77 54
116 99 241 99 272 0 18 -6 31 -17 36 -10 4 -92 6 -183 6 -90 -1 -179 4 -196 9
-30 10 -31 14 -43 93 -53 370 -117 934 -127 1118 -8 144 0 178 86 369 27 58
57 125 67 150 52 119 112 145 382 161 97 6 228 14 291 18 177 12 772 12 895 1z
m2811 -14 c95 -17 142 -30 369 -101 94 -29 186 -56 205 -60 43 -9 116 -40 124
-53 3 -5 -43 -45 -102 -88 -367 -268 -503 -375 -637 -500 -83 -76 -181 -166
-220 -199 -89 -77 -187 -177 -221 -226 l-27 -39 23 -25 c30 -32 150 -93 275
-140 82 -31 504 -230 1110 -525 114 -56 181 -106 166 -124 -11 -13 -87 -64
-396 -268 -164 -108 -248 -170 -328 -245 -59 -55 -122 -108 -141 -118 l-34
-19 -61 56 c-33 31 -118 97 -189 147 -72 50 -217 161 -323 247 -238 192 -359
279 -472 339 l-87 47 -27 -22 c-73 -56 -161 -189 -278 -418 l-57 -113 -32 6
c-330 68 -826 205 -958 264 l-47 22 22 37 c12 20 53 71 92 112 39 41 97 106
130 145 33 38 105 119 160 180 165 181 285 341 285 379 0 25 -50 76 -129 128
-42 29 -152 111 -246 183 -93 72 -206 158 -250 190 -102 74 -155 124 -148 141
2 7 19 16 36 20 18 3 203 62 412 131 209 68 400 127 425 130 l45 5 44 -74 c88
-144 167 -253 234 -320 37 -37 74 -68 81 -68 7 0 102 93 212 206 210 218 453
427 664 571 98 67 109 72 160 72 30 1 91 -5 136 -13z m-8971 -306 c137 -19
173 -49 216 -178 12 -37 42 -119 66 -182 117 -301 269 -790 313 -1008 35 -172
41 -348 15 -423 -44 -125 -133 -150 -630 -179 -99 -6 -226 -17 -281 -25 -172
-25 -525 -37 -887 -29 l-337 7 -43 27 c-111 71 -331 294 -363 366 -29 68 -43
358 -24 503 12 90 41 142 112 204 51 44 52 45 56 110 3 49 -1 82 -18 132 -27
82 -24 125 20 285 75 271 86 294 160 324 64 25 197 44 435 61 121 8 238 17
260 19 85 8 854 -3 930 -14z m4245 -895 c6 -72 24 -238 40 -369 17 -132 30
-244 30 -248 0 -4 -32 -8 -70 -8 l-71 0 6 58 c3 31 12 163 21 292 22 347 27
411 30 407 2 -1 8 -61 14 -132z m-6665 -426 c94 -6 177 -12 187 -15 14 -4 16
-25 15 -177 -2 -190 -2 -189 71 -292 45 -63 58 -73 -314 230 -169 138 -315
256 -323 263 -17 13 7 13 364 -9z"/>
<path d="M882 2753 c-10 -4 -12 -30 -7 -116 8 -143 53 -509 63 -519 4 -4 111
12 237 37 127 25 286 52 355 61 69 9 141 22 160 28 l35 11 8 130 c4 72 5 163
1 203 -7 90 -19 99 -136 112 -45 5 -128 16 -183 24 -187 29 -493 45 -533 29z
m602 -248 c85 -18 92 -24 80 -67 -8 -27 -17 -34 -54 -45 -83 -24 -370 -86
-376 -81 -5 5 -18 86 -28 177 l-5 44 157 -6 c86 -4 188 -13 226 -22z"/>
<path d="M6270 2812 l-25 -8 3 -125 c3 -144 23 -325 52 -464 11 -53 20 -100
20 -103 0 -15 212 11 350 43 85 20 204 47 264 59 80 17 114 29 127 44 20 26
58 215 66 333 6 83 5 87 -18 102 -28 19 -308 82 -453 102 -122 18 -351 27
-386 17z m470 -233 c52 -5 110 -14 128 -20 l32 -11 0 -76 c0 -42 -4 -82 -8
-89 -14 -22 -58 -33 -304 -76 -87 -15 -88 -14 -88 50 0 20 -5 75 -12 123 -6
48 -8 95 -5 104 7 18 32 18 257 -5z"/>
<path d="M6705 1743 c-67 -4 -275 -30 -407 -49 -104 -16 -107 -17 -113 -44
-15 -67 39 -467 83 -625 l9 -30 81 2 c44 1 140 9 212 18 73 8 167 15 210 15
94 0 106 4 126 42 39 75 84 475 69 613 l-7 65 -106 -2 c-59 -1 -129 -3 -157
-5z m28 -313 c-1 -47 -5 -104 -8 -126 -6 -41 -6 -42 -63 -53 -115 -22 -187
-25 -200 -8 -15 17 -34 180 -26 213 5 19 15 22 82 28 42 4 102 13 132 20 86
22 85 23 83 -74z"/>
<path d="M10545 2684 c-245 -96 -702 -329 -768 -392 -26 -25 -28 -31 -21 -77
18 -134 331 -861 423 -983 l17 -23 160 45 c209 59 226 63 456 96 109 16 202
31 207 34 11 7 4 136 -16 281 -18 134 -52 294 -99 469 -19 72 -57 218 -84 324
-50 199 -86 283 -118 281 -9 0 -80 -25 -157 -55z m-23 -439 c11 -38 40 -133
65 -210 24 -77 55 -185 68 -240 26 -106 50 -284 39 -294 -3 -3 -93 -31 -200
-62 l-194 -56 -20 31 c-38 62 -88 173 -128 286 -69 194 -122 370 -122 406 0
55 49 84 335 197 128 51 124 52 157 -58z"/>
<path d="M3488 2264 c-29 -33 -38 -95 -38 -254 0 -364 44 -630 123 -746 31
-47 34 -49 78 -48 26 1 77 16 120 34 118 51 524 186 641 214 59 14 130 37 158
51 45 23 50 29 50 59 0 151 -154 587 -212 600 -185 43 -576 96 -753 103 -139
5 -151 4 -167 -13z m654 -250 l56 -7 50 -106 c54 -114 102 -242 102 -269 0
-12 -22 -25 -73 -44 -39 -14 -139 -52 -222 -83 -82 -31 -165 -57 -184 -58
l-34 -2 -38 154 c-40 163 -67 360 -55 406 l7 28 167 -6 c92 -4 192 -10 224
-13z"/>
<path d="M4425 3780 c-643 -15 -880 -31 -1225 -81 -126 -19 -149 -41 -136
-136 11 -86 46 -178 124 -333 53 -107 85 -159 102 -168 34 -18 217 -9 375 17
272 46 703 66 901 41 43 -5 177 -14 296 -20 240 -11 255 -8 287 44 45 74 94
343 89 485 -3 76 -5 86 -28 103 -65 48 -260 60 -785 48z m275 -145 c69 -9 130
-21 137 -28 14 -14 -16 -177 -43 -229 l-16 -31 -157 6 c-193 7 -894 -26 -996
-47 -87 -19 -166 -20 -186 -3 -18 14 -94 179 -104 224 -14 70 74 90 444 103
157 6 287 13 290 15 12 12 514 4 631 -10z"/>
</g>
</svg>
